<svg width="188" height="40" viewBox="0 0 188 40" fill="none" xmlns="http://www.w3.org/2000/svg">
<g clip-path="url(#clip0_1_11)">
<path d="M39.9449 21.4998H32.8003C26.5594 21.4998 21.5003 26.559 21.5003 32.7998V39.9444C31.3502 39.214 39.2145 31.3497 39.9449 21.4998Z" fill="white"/>
<path d="M18.5003 39.9444V32.7998C18.5003 26.559 13.4411 21.4998 7.20026 21.4998H0.0556641C0.785998 31.3497 8.65036 39.214 18.5003 39.9444Z" fill="white"/>
<path d="M39.9449 18.4998C39.2145 8.64987 31.3502 0.78551 21.5003 0.0551758V7.19977C21.5003 13.4406 26.5594 18.4998 32.8003 18.4998H39.9449Z" fill="white"/>
<path d="M18.5003 0.0551758C8.65036 0.78551 0.785998 8.64987 0.0556641 18.4998H7.20026C13.4411 18.4998 18.5003 13.4406 18.5003 7.19977V0.0551758Z" fill="white"/>
<path d="M13.583 19.9998C16.3555 18.6145 18.615 16.355 20.0002 13.5825C21.3855 16.355 23.6449 18.6145 26.4175 19.9998C23.6449 21.385 21.3855 23.6445 20.0002 26.417C18.615 23.6445 16.3555 21.385 13.583 19.9998Z" fill="white"/>
</g>
<path d="M48.792 19.628C49.008 18.38 49.464 17.27 50.16 16.298C50.856 15.314 51.732 14.552 52.788 14.012C53.844 13.46 54.996 13.184 56.244 13.184C57.288 13.184 58.2 13.376 58.98 13.76C59.76 14.144 60.366 14.69 60.798 15.398C61.23 16.106 61.464 16.94 61.5 17.9H57.702C57.558 17.432 57.306 17.072 56.946 16.82C56.586 16.568 56.142 16.442 55.614 16.442C54.798 16.442 54.096 16.73 53.508 17.306C52.92 17.882 52.542 18.656 52.374 19.628C52.326 19.88 52.302 20.15 52.302 20.438C52.302 21.182 52.494 21.77 52.878 22.202C53.274 22.622 53.814 22.832 54.498 22.832C55.026 22.832 55.512 22.706 55.956 22.454C56.412 22.202 56.79 21.842 57.09 21.374H60.906C60.33 22.826 59.424 23.978 58.188 24.83C56.952 25.67 55.542 26.09 53.958 26.09C52.866 26.09 51.918 25.88 51.114 25.46C50.322 25.04 49.716 24.446 49.296 23.678C48.876 22.91 48.666 22.022 48.666 21.014C48.666 20.546 48.708 20.084 48.792 19.628ZM66.7346 17.738C67.2266 17.15 67.7846 16.682 68.4086 16.334C69.0326 15.986 69.6686 15.812 70.3166 15.812L69.6686 19.574H68.6786C67.9346 19.574 67.3526 19.712 66.9326 19.988C66.5126 20.264 66.2306 20.744 66.0866 21.428L65.2766 26H61.7306L63.5306 15.902H67.0586L66.7346 17.738ZM76.1534 15.776C77.4734 15.776 78.5174 16.13 79.2854 16.838C80.0654 17.546 80.4554 18.512 80.4554 19.736C80.4554 20.144 80.4254 20.504 80.3654 20.816C80.2934 21.2 80.2214 21.476 80.1494 21.644H73.4714C73.4594 21.716 73.4534 21.824 73.4534 21.968C73.4534 22.424 73.5614 22.76 73.7774 22.976C74.0054 23.192 74.3054 23.3 74.6774 23.3C75.2654 23.3 75.7334 23.036 76.0814 22.508H79.8254C79.5494 23.204 79.1354 23.828 78.5834 24.38C78.0434 24.92 77.4014 25.346 76.6574 25.658C75.9254 25.97 75.1454 26.126 74.3174 26.126C72.9974 26.126 71.9474 25.766 71.1674 25.046C70.3874 24.326 69.9974 23.336 69.9974 22.076C69.9974 21.716 70.0334 21.338 70.1054 20.942C70.2974 19.886 70.6754 18.974 71.2394 18.206C71.8154 17.426 72.5234 16.826 73.3634 16.406C74.2154 15.986 75.1454 15.776 76.1534 15.776ZM76.8914 20.06C76.9154 19.892 76.9274 19.784 76.9274 19.736C76.9274 19.352 76.8074 19.064 76.5674 18.872C76.3274 18.668 76.0154 18.566 75.6314 18.566C75.1874 18.566 74.8034 18.692 74.4794 18.944C74.1554 19.196 73.9154 19.568 73.7594 20.06H76.8914ZM81.1972 20.942C81.3892 19.898 81.7432 18.986 82.2592 18.206C82.7752 17.426 83.3932 16.826 84.1132 16.406C84.8452 15.986 85.6132 15.776 86.4172 15.776C87.1132 15.776 87.6892 15.914 88.1452 16.19C88.6012 16.466 88.9192 16.838 89.0992 17.306L89.3512 15.902H92.8792L91.0972 26H87.5692L87.8212 24.596C87.4732 25.064 87.0172 25.436 86.4532 25.712C85.8892 25.988 85.2652 26.126 84.5812 26.126C83.5252 26.126 82.6792 25.778 82.0432 25.082C81.4072 24.374 81.0892 23.414 81.0892 22.202C81.0892 21.806 81.1252 21.386 81.1972 20.942ZM88.4692 20.942C88.5052 20.762 88.5232 20.594 88.5232 20.438C88.5232 19.934 88.3792 19.544 88.0912 19.268C87.8152 18.992 87.4552 18.854 87.0112 18.854C86.4832 18.854 86.0092 19.04 85.5892 19.412C85.1692 19.772 84.9052 20.282 84.7972 20.942C84.7612 21.122 84.7432 21.296 84.7432 21.464C84.7432 21.968 84.8812 22.358 85.1572 22.634C85.4452 22.91 85.8112 23.048 86.2552 23.048C86.7832 23.048 87.2572 22.862 87.6772 22.49C88.0972 22.118 88.3612 21.602 88.4692 20.942ZM97.8776 22.22C97.8656 22.28 97.8596 22.352 97.8596 22.436C97.8596 22.628 97.9136 22.772 98.0216 22.868C98.1416 22.952 98.3336 22.994 98.5976 22.994H99.6236L99.0836 26H97.5356C95.3396 26 94.2416 25.076 94.2416 23.228C94.2416 22.916 94.2776 22.562 94.3496 22.166L94.9436 18.836H93.7016L94.2236 15.902H95.4656L95.8976 13.454H99.4436L99.0116 15.902H100.83L100.308 18.836H98.4896L97.8776 22.22ZM104.428 14.966C103.876 14.966 103.438 14.828 103.114 14.552C102.802 14.276 102.646 13.922 102.646 13.49C102.646 13.106 102.748 12.752 102.952 12.428C103.168 12.092 103.456 11.828 103.816 11.636C104.188 11.432 104.602 11.33 105.058 11.33C105.61 11.33 106.042 11.474 106.354 11.762C106.678 12.038 106.84 12.398 106.84 12.842C106.84 13.226 106.732 13.58 106.516 13.904C106.312 14.228 106.024 14.486 105.652 14.678C105.28 14.87 104.872 14.966 104.428 14.966ZM106.012 15.902L104.23 26H100.684L102.484 15.902H106.012ZM111.657 22.67L114.753 15.902H118.515L113.259 26H108.867L107.175 15.902H110.937L111.657 22.67ZM124.282 15.776C125.602 15.776 126.646 16.13 127.414 16.838C128.194 17.546 128.584 18.512 128.584 19.736C128.584 20.144 128.554 20.504 128.494 20.816C128.422 21.2 128.35 21.476 128.278 21.644H121.6C121.588 21.716 121.582 21.824 121.582 21.968C121.582 22.424 121.69 22.76 121.906 22.976C122.134 23.192 122.434 23.3 122.806 23.3C123.394 23.3 123.862 23.036 124.21 22.508H127.954C127.678 23.204 127.264 23.828 126.712 24.38C126.172 24.92 125.53 25.346 124.786 25.658C124.054 25.97 123.274 26.126 122.446 26.126C121.126 26.126 120.076 25.766 119.296 25.046C118.516 24.326 118.126 23.336 118.126 22.076C118.126 21.716 118.162 21.338 118.234 20.942C118.426 19.886 118.804 18.974 119.368 18.206C119.944 17.426 120.652 16.826 121.492 16.406C122.344 15.986 123.274 15.776 124.282 15.776ZM125.02 20.06C125.044 19.892 125.056 19.784 125.056 19.736C125.056 19.352 124.936 19.064 124.696 18.872C124.456 18.668 124.144 18.566 123.76 18.566C123.316 18.566 122.932 18.692 122.608 18.944C122.284 19.196 122.044 19.568 121.888 20.06H125.02ZM144.143 17.54C144.011 18.308 143.711 19.01 143.243 19.646C142.787 20.27 142.169 20.774 141.389 21.158C140.609 21.53 139.703 21.716 138.671 21.716H136.925L136.169 26H132.623L134.873 13.31H140.147C141.479 13.31 142.493 13.616 143.189 14.228C143.885 14.828 144.233 15.638 144.233 16.658C144.233 16.91 144.203 17.204 144.143 17.54ZM138.833 18.926C139.829 18.926 140.405 18.464 140.561 17.54C140.585 17.372 140.597 17.252 140.597 17.18C140.597 16.856 140.489 16.604 140.273 16.424C140.069 16.232 139.751 16.136 139.319 16.136H137.915L137.429 18.926H138.833ZM147.811 14.966C147.259 14.966 146.821 14.828 146.497 14.552C146.185 14.276 146.029 13.922 146.029 13.49C146.029 13.106 146.131 12.752 146.335 12.428C146.551 12.092 146.839 11.828 147.199 11.636C147.571 11.432 147.985 11.33 148.441 11.33C148.993 11.33 149.425 11.474 149.737 11.762C150.061 12.038 150.223 12.398 150.223 12.842C150.223 13.226 150.115 13.58 149.899 13.904C149.695 14.228 149.407 14.486 149.035 14.678C148.663 14.87 148.255 14.966 147.811 14.966ZM149.395 15.902L147.613 26H144.067L145.867 15.902H149.395ZM157.182 21.05L159.864 26H155.904L154.536 23.462L152.646 26H148.794L153.06 20.762L150.432 15.902H154.392L155.76 18.44L157.668 15.902H161.538L157.182 21.05ZM167.278 15.776C168.598 15.776 169.642 16.13 170.41 16.838C171.19 17.546 171.58 18.512 171.58 19.736C171.58 20.144 171.55 20.504 171.49 20.816C171.418 21.2 171.346 21.476 171.274 21.644H164.596C164.584 21.716 164.578 21.824 164.578 21.968C164.578 22.424 164.686 22.76 164.902 22.976C165.13 23.192 165.43 23.3 165.802 23.3C166.39 23.3 166.858 23.036 167.206 22.508H170.95C170.674 23.204 170.26 23.828 169.708 24.38C169.168 24.92 168.526 25.346 167.782 25.658C167.05 25.97 166.27 26.126 165.442 26.126C164.122 26.126 163.072 25.766 162.292 25.046C161.512 24.326 161.122 23.336 161.122 22.076C161.122 21.716 161.158 21.338 161.23 20.942C161.422 19.886 161.8 18.974 162.364 18.206C162.94 17.426 163.648 16.826 164.488 16.406C165.34 15.986 166.27 15.776 167.278 15.776ZM168.016 20.06C168.04 19.892 168.052 19.784 168.052 19.736C168.052 19.352 167.932 19.064 167.692 18.872C167.452 18.668 167.14 18.566 166.756 18.566C166.312 18.566 165.928 18.692 165.604 18.944C165.28 19.196 165.04 19.568 164.884 20.06H168.016ZM177.902 12.68L175.544 26H171.998L174.356 12.68H177.902ZM181.945 26.126C181.105 26.126 180.355 26 179.695 25.748C179.035 25.496 178.519 25.142 178.147 24.686C177.775 24.218 177.589 23.684 177.589 23.084C177.589 22.976 177.601 22.814 177.625 22.598H181.027C181.015 22.934 181.117 23.192 181.333 23.372C181.549 23.552 181.849 23.642 182.233 23.642C182.533 23.642 182.779 23.582 182.971 23.462C183.175 23.342 183.277 23.186 183.277 22.994C183.277 22.766 183.151 22.592 182.899 22.472C182.647 22.34 182.227 22.178 181.639 21.986C180.955 21.77 180.391 21.56 179.947 21.356C179.503 21.152 179.113 20.852 178.777 20.456C178.453 20.06 178.291 19.55 178.291 18.926C178.291 18.326 178.465 17.786 178.813 17.306C179.173 16.826 179.677 16.454 180.325 16.19C180.973 15.914 181.723 15.776 182.575 15.776C183.487 15.776 184.273 15.932 184.933 16.244C185.605 16.544 186.103 16.964 186.427 17.504C186.763 18.044 186.913 18.644 186.877 19.304H183.709C183.721 18.98 183.625 18.728 183.421 18.548C183.217 18.356 182.923 18.26 182.539 18.26C182.263 18.26 182.035 18.32 181.855 18.44C181.675 18.56 181.585 18.716 181.585 18.908C181.585 19.136 181.711 19.316 181.963 19.448C182.227 19.58 182.665 19.748 183.277 19.952C183.949 20.168 184.507 20.384 184.951 20.6C185.407 20.804 185.797 21.098 186.121 21.482C186.445 21.854 186.607 22.334 186.607 22.922C186.607 23.918 186.175 24.704 185.311 25.28C184.447 25.844 183.325 26.126 181.945 26.126Z" fill="white"/>
<defs>
<clipPath id="clip0_1_11">
<rect width="40" height="40" fill="white"/>
</clipPath>
</defs>
</svg>
